<svg id="Layer_1" data-name="Layer 1" xmlns="http://www.w3.org/2000/svg" viewBox="0 0 57.12 37"><defs><style>.cls-1{fill:#231f20;}.cls-2{fill:#fff;stroke:#231f20;stroke-miterlimit:10;}</style></defs><path class="cls-1" d="M57.12,14A12.47,12.47,0,0,0,46.17,1.64a11,11,0,0,0-3.11,0,12.41,12.41,0,0,0-7.3,3.55l-.28.28-.27-.28a12.41,12.41,0,0,0-7.29-3.55,11.69,11.69,0,0,0-1.56-.11h-.24l0,.1L29,9.11a5.63,5.63,0,0,1,1.36,1l4.82,4.82.35.36.36-.36,4.82-4.82A5.59,5.59,0,0,1,48.57,18L36.87,29.7l-.17.15-1.57,1.49L24,1.64h-8L4.26,32.86,8.35,37H27.12l-2.27-6.83-12,0,.38-1.09,6.64-18.78H20L26.5,29.13,29.17,37H39.38v0L53.46,22.89A12.46,12.46,0,0,0,57.12,14Z"/><path class="cls-2" d="M53.45,13a12.46,12.46,0,0,0-11-12.4A11.42,11.42,0,0,0,40.94.5a11.57,11.57,0,0,0-1.56.11,12.41,12.41,0,0,0-7.29,3.55l-.28.28-.28-.28A12.38,12.38,0,0,0,24.24.61,11.46,11.46,0,0,0,22.68.5h-.23l0,.1,2.8,7.47a5.83,5.83,0,0,1,1.36,1l4.82,4.82.35.35.35-.35L37,9.05A5.59,5.59,0,1,1,44.89,17l-11.7,11.7-.16.16-1.58,1.49L20.35.61h-8L.58,31.83,4.68,36H23.45l-2.27-6.83-12,.05.39-1.1L16.24,9.32h.1l6.48,18.77L25.5,36H35.71v0L49.79,21.86A12.46,12.46,0,0,0,53.45,13Z"/></svg>