<svg id="Icon_Name" data-name="Icon Name" xmlns="http://www.w3.org/2000/svg" viewBox="0 0 24 24"><defs><style>.cls-1{fill:#f37d4b;}.cls-2{fill:#231f20;}.cls-3{fill:#fff;stroke:#231f20;stroke-miterlimit:10;stroke-width:0.38px;}</style></defs><rect class="cls-1" width="24" height="24"/><path class="cls-2" d="M22.86,10.19a4.79,4.79,0,0,0-4.21-4.76,3.81,3.81,0,0,0-.59,0,3.94,3.94,0,0,0-.6,0,4.76,4.76,0,0,0-2.8,1.36l-.11.11-.11-.11a4.76,4.76,0,0,0-2.8-1.36,4,4,0,0,0-.6,0H11v0L12,8.3a1.9,1.9,0,0,1,.52.37l1.85,1.85.14.14.13-.14,1.86-1.85a2.15,2.15,0,0,1,3,3l-4.49,4.5-.06.05-.61.58L10.14,5.43H7.08l-4.53,12L4.12,19h7.21l-.87-2.62-4.59,0L6,16,8.56,8.77h0L11.09,16l1,3H16l5.41-5.41A4.78,4.78,0,0,0,22.86,10.19Z"/><path class="cls-3" d="M21.45,9.79A4.79,4.79,0,0,0,17.24,5a3.94,3.94,0,0,0-.6,0,3.81,3.81,0,0,0-.59,0,4.81,4.81,0,0,0-2.81,1.36l-.1.11L13,6.39A4.76,4.76,0,0,0,10.23,5a4,4,0,0,0-.6,0H9.54V5L10.63,7.9a2.6,2.6,0,0,1,.52.37L13,10.13l.14.13.13-.13,1.85-1.86a2.17,2.17,0,0,1,1.52-.62,2.13,2.13,0,0,1,2.15,2.14,2.1,2.1,0,0,1-.63,1.52l-4.49,4.5-.06.06-.61.57L8.73,5H5.67L1.14,17l1.57,1.59H9.92L9.05,16l-4.6,0,.15-.42L7.15,8.38h0l2.49,7.21,1,3h3.92L20,13.19A4.75,4.75,0,0,0,21.45,9.79Z"/></svg>